<?xml version="1.0" encoding="UTF-8"?>
<!DOCTYPE svg PUBLIC "-//W3C//DTD SVG 1.1//EN" "http://www.w3.org/Graphics/SVG/1.1/DTD/svg11.dtd">
<!-- Creator: CorelDRAW X7 -->
<svg xmlns="http://www.w3.org/2000/svg" xml:space="preserve" width="37.1604mm" height="32.1819mm" version="1.1" style="shape-rendering:geometricPrecision; text-rendering:geometricPrecision; image-rendering:optimizeQuality; fill-rule:evenodd; clip-rule:evenodd"
viewBox="0 0 749 649"
 xmlns:xlink="http://www.w3.org/1999/xlink">
 <defs>
  <style type="text/css">
   <![CDATA[
    .str0 {stroke:#D9DADA;stroke-width:1.53589}
    .fil0 {fill:#FEFEFE}
    .fil3 {fill:#005EBC}
    .fil2 {fill:#173576}
    .fil1 {fill:#1F1868}
    .fil4 {fill:#22B128}
    .fil5 {fill:#D0BD00}
    .fil7 {fill:#E40905}
    .fil6 {fill:#EC6A08}
   ]]>
  </style>
 </defs>
 <g id="Layer_x0020_1">
  <metadata id="CorelCorpID_0Corel-Layer"/>
  <g id="_2425396623984">
   <polygon class="fil0 str0" points="375,2 561,325 748,648 375,648 1,648 188,325 "/>
   <g>
    <path class="fil1" d="M659 631l-587 -66 -38 66 341 0c26,0 284,0 284,0z"/>
    <path class="fil2" d="M82 548l578 76c0,0 0,0 0,0l-543 -137 -35 61z"/>
    <path class="fil3" d="M129 466l532 150c0,0 0,0 0,0l0 0 -498 -209 -34 59z"/>
    <path class="fil4" d="M172 391l492 217c0,0 0,0 0,0l-457 -277 -3 5 -32 55z"/>
    <path class="fil5" d="M218 312l450 288c0,0 0,0 0,0l-412 -354 -38 66z"/>
    <path class="fil6" d="M268 225l406 368c0,0 0,0 0,0l-362 -444 -44 76z"/>
    <path class="fil7" d="M325 127l356 459c0,0 0,0 0,0l-306 -546 -50 87z"/>
   </g>
  </g>
 </g>
</svg>
